# xmcd
#
# Track frame offsets:
#	150
#	9864
#	26377
#	40781
#	68432
#	80200
#	95153
#	113130
#	131945
#	147175
#	165493
#	185501
#	206441
#
# Disc length: 2992 seconds
#
# Revision: 0
# Processed by: cddbd v1.5.2PL0 Copyright (c) Steve Scherf et al.
# Submitted via: EasyCDDAExtractor 11.1.0.1
#
DISCID=a90bae0d
DTITLE=Rio Grande - On the road again
DYEAR=2011
DGENRE=Country
TTITLE0=On the road again
TTITLE1=Ring of fire
TTITLE2=Don't cry
TTITLE3=Always on my mind
TTITLE4=Get rhythm
TTITLE5=Harvest
TTITLE6=Hickory wind
TTITLE7=Las Vegas
TTITLE8=Funny how times slips away
TTITLE9=I will survive
TTITLE10=(Ghost) Riders in the sky
TTITLE11=love hurts
TTITLE12=Sweet home Alabama
EXTD=
EXTT0=
EXTT1=
EXTT2=
EXTT3=
EXTT4=
EXTT5=
EXTT6=
EXTT7=
EXTT8=
EXTT9=
EXTT10=
EXTT11=
EXTT12=
PLAYORDER=
